<?xml version="1.0" encoding="UTF-8"?>
<svg width="44px" height="44px" viewBox="0 0 44 44" version="1.1" xmlns="http://www.w3.org/2000/svg" xmlns:xlink="http://www.w3.org/1999/xlink">
    <title>1</title>
    <defs>
        <linearGradient x1="0%" y1="0%" x2="99.9992546%" y2="99.9992546%" id="linearGradient-1">
            <stop stop-color="#FCC3A3" offset="0%"></stop>
            <stop stop-color="#FBA769" offset="100%"></stop>
        </linearGradient>
        <linearGradient x1="0%" y1="100%" x2="99.9992546%" y2="50.0003727%" id="linearGradient-2">
            <stop stop-color="#FA753F" offset="0%"></stop>
            <stop stop-color="#FF9A3F" offset="100%"></stop>
        </linearGradient>
        <linearGradient x1="53.4794235%" y1="57.1200992%" x2="70.6009447%" y2="42.6502818%" id="linearGradient-3">
            <stop stop-color="#FFFFFF" offset="0%"></stop>
            <stop stop-color="#D2D4E3" offset="100%"></stop>
        </linearGradient>
        <linearGradient x1="0%" y1="100%" x2="99.9992546%" y2="50.0003727%" id="linearGradient-4">
            <stop stop-color="#C6C7D8" offset="0%"></stop>
            <stop stop-color="#DFDFDF" offset="100%"></stop>
        </linearGradient>
    </defs>
    <g id="产品" stroke="none" stroke-width="1" fill="none" fill-rule="evenodd">
        <g id="设备管理-添加完成提示" transform="translate(-544.000000, -366.000000)">
            <g id="弹框" transform="translate(520.000000, 275.000000)">
                <g id="1" transform="translate(24.000000, 91.000000)">
                    <rect id="矩形" x="0" y="0" width="44" height="44"></rect>
                    <g id="编组" transform="translate(5.024248, 4.307900)">
                        <g transform="translate(0.196504, 18.090820)" fill="url(#linearGradient-1)" id="路径">
                            <polygon points="16.8097095 16.9362806 16.8097095 8.61223596 0.161622873 0.288191312 0.161622873 8.61223596"></polygon>
                        </g>
                        <polygon id="路径" fill="#EF7000" points="17.0060766 10.0550538 33.6541632 18.3790985 17.0060766 26.7031431 0.358300227 18.3790985"></polygon>
                        <polygon id="路径" fill="url(#linearGradient-2)" points="17.0060766 26.7031431 33.6541632 18.3790985 33.6541632 26.7031431 17.0060766 35.0271878"></polygon>
                        <g transform="translate(2.150665, 23.010152)" fill="#FF6A00" id="路径">
                            <polygon points="1.31569648 1.98236901 1.31569648 0.674228743 0.00755643081 0.020134235 0.00755643081 1.3282745"></polygon>
                        </g>
                        <g transform="translate(4.467983, 24.168812)" fill="#FF6A00" id="路径">
                            <polygon points="10.2515415 6.45026789 10.2515415 5.14212763 0.00755643081 0.020134235 0.00755643081 1.3282745"></polygon>
                        </g>
                        <g id="路径">
                            <g transform="translate(0.196504, 8.412891)" fill="#E9E9EF">
                                <polygon points="16.8097095 16.9362806 16.8097095 8.61223596 0.161622873 0.288191312 0.161622873 8.61223596"></polygon>
                            </g>
                            <g transform="translate(0.310217, 0.249011)" fill="url(#linearGradient-3)">
                                <polygon points="16.6958599 0.128119496 33.3439465 8.45216414 16.6958599 16.7762088 0.0480835803 8.45216414"></polygon>
                            </g>
                            <g transform="translate(16.751699, 8.624862)" fill="url(#linearGradient-4)">
                                <polygon points="0.254377651 8.40035795 16.9024642 0.0763133076 16.9024642 8.40035795 0.254377651 16.7244026"></polygon>
                            </g>
                            <g transform="translate(2.150665, 13.332322)" fill="#C0C0C0">
                                <polygon points="1.31569648 1.98236901 1.31569648 0.674228743 0.00755643081 0.020134235 0.00755643081 1.3282745"></polygon>
                            </g>
                            <g transform="translate(4.467983, 14.490981)" fill="#C0C0C0">
                                <polygon points="10.2515415 6.45026789 10.2515415 5.14212763 0.00755643081 0.020134235 0.00755643081 1.3282745"></polygon>
                            </g>
                        </g>
                    </g>
                    <g id="编组" transform="translate(27.979468, 7.478405)" fill="#FF5737">
                        <path d="M4.98792253,5.05514213 L4.98792253,0.291800517 C4.98792253,0.167768213 5.08860581,0.0670845061 5.21263759,0.0670845061 C5.7460084,0.0670845061 7.08359259,0.0670845061 7.6169634,0.0670845061 C7.74110908,0.0670845061 7.84167846,0.167768213 7.84167846,0.291800517 L7.84167846,5.05514213 L12.6019247,5.05514213 C12.6622891,5.05514213 12.7202617,5.07906021 12.7629724,5.12188495 C12.805683,5.1645958 12.8297149,5.22245476 12.8297149,5.28293333 C12.8297149,5.81733146 12.8297149,7.14672086 12.8297149,7.681119 C12.8297149,7.74148366 12.805683,7.79945652 12.7629724,7.84216737 C12.7202617,7.88487822 12.6622891,7.90891019 12.6019247,7.90891019 L7.84167846,7.90891019 L7.84167846,12.6721379 C7.84167846,12.7962841 7.74110908,12.8968539 7.6169634,12.8968539 C7.08359259,12.8968539 5.7460084,12.8968539 5.21263759,12.8968539 C5.08860581,12.8968539 4.98792253,12.7962841 4.98792253,12.6721379 L4.98792253,7.90891019 L0.227790224,7.90891019 C0.167311919,7.90891019 0.109453203,7.88487822 0.0667425356,7.84216737 C0.0240318686,7.79945652 0,7.74148366 0,7.681119 C0,7.14672086 0,5.81733146 0,5.28293333 C0,5.22245476 0.0240318686,5.1645958 0.0667425356,5.12188495 C0.109453203,5.07906021 0.167311919,5.05514213 0.227790224,5.05514213 L4.98792253,5.05514213 Z" id="路径"></path>
                    </g>
                </g>
            </g>
        </g>
    </g>
</svg>