<?xml version="1.0" encoding="UTF-8"?>
<svg width="110px" height="114px" viewBox="0 0 110 114" version="1.1" xmlns="http://www.w3.org/2000/svg" xmlns:xlink="http://www.w3.org/1999/xlink">
    <title>情感化／空数据</title>
    <g id="页面-1" stroke="none" stroke-width="1" fill="none" fill-rule="evenodd">
        <g id="参数组监视-空数据" transform="translate(-133.000000, -188.000000)">
            <g id="情感化／空数据" transform="translate(133.000000, 188.000000)">
                <circle id="椭圆形-copy-17" fill="#F2F2F2" fill-rule="nonzero" cx="53.9756626" cy="51.7326881" r="50.9545118"></circle>
                <path d="M15.5829753,76.8820312 C15.415756,74.9640995 14.8488573,73.1025577 13.9188465,71.4174821 C12.9799242,73.0865857 12.4027743,74.9350239 12.2250013,76.8423613 C10.2189819,76.9972304 8.26971772,77.582379 6.50951155,78.5580912 C8.27050908,79.530342 10.2197303,80.1120956 12.2250013,80.2639028 C12.3998287,82.1718311 13.0129006,86.0680452 13.9545801,87.7359539 C14.89633,86.0537935 15.4377494,82.1446566 15.6126919,80.224233 C17.4535927,80.0277368 19.2358961,79.4610278 20.8527162,78.5580912 C19.2275129,77.6481336 17.4347372,77.0779354 15.5829753,76.8820312 Z" id="路径-copy-2" fill="#C9C9C9" fill-rule="nonzero"></path>
                <g id="分组-10-copy-16" transform="translate(81.110275, 9.100085)" fill-rule="nonzero">
                    <polygon id="路径-5" fill="#FFFFFF" points="9.52855618 4.25540578 4.02357458 9.98527727 9.92176916 15.3855255 15.8199637 9.98527727"></polygon>
                    <path d="M5.32678011,9.87283508 C7.35446526,10.7870721 9.00474113,12.3657656 9.98369364,14.3244641 C10.9626462,12.3657656 12.6129221,10.7870721 14.6406072,9.87283508 C12.6129221,8.95859801 10.9626462,7.37990454 9.98369364,5.42120605 C9.00474113,7.37990454 7.35446526,8.95859801 5.32678011,9.87283508 Z M0.356674228,9.87283508 C0.35582104,9.85663178 0.355389073,9.84031681 0.355389073,9.82390096 C0.355389073,9.31817677 0.765359555,8.90820627 1.27108378,8.90820627 C5.26182926,8.90820627 8.55044987,6.02041871 9.06106605,2.2861879 C9.02471806,1.9527234 9.00607441,1.61405235 9.00607441,1.27108378 C9.00607441,0.765359555 9.41604491,0.355389073 9.92176916,0.355389073 C9.94258009,0.355389073 9.96322889,0.356083311 9.98369364,0.357449894 C10.0041584,0.356083311 10.0248072,0.355389073 10.0456182,0.355389073 C10.5513424,0.355389073 10.9613129,0.765359555 10.9613129,1.27108378 C10.9613129,1.61405235 10.9426692,1.9527234 10.9063212,2.2861879 C11.4169374,6.02041871 14.705558,8.90820627 18.6963035,8.90820627 C19.2020278,8.90820627 19.6119983,9.31817677 19.6119983,9.82390096 C19.6119983,9.84031681 19.6115663,9.85663178 19.6107131,9.87283508 C19.6115663,9.88903839 19.6119983,9.9053533 19.6119983,9.92176916 C19.6119983,10.4274933 19.2020278,10.8374638 18.6963035,10.8374638 C14.705558,10.8374638 11.4169374,13.7252514 10.9063212,17.4594822 C10.9426692,17.7929467 10.9613129,18.1316177 10.9613129,18.4745863 C10.9613129,18.9803105 10.5513424,19.390281 10.0456182,19.390281 C10.0248072,19.390281 10.0041584,19.3895868 9.98369364,19.3882202 C9.96322889,19.3895868 9.94258009,19.390281 9.92176916,19.390281 C9.41604491,19.390281 9.00607441,18.9803105 9.00607441,18.4745863 C9.00607441,18.1316177 9.02471806,17.7929467 9.06106605,17.4594822 C8.55044987,13.7252514 5.26182926,10.8374638 1.27108378,10.8374638 C0.765359555,10.8374638 0.355389073,10.4274933 0.355389073,9.92176916 C0.355389073,9.9053533 0.35582104,9.88903839 0.356674228,9.87283508 Z" id="合并形状" fill="#C9C9C9"></path>
                </g>
                <g id="Group-6-Copy-5" transform="translate(0.058511, 0.350028)" fill-rule="nonzero">
                    <g id="Group-5" transform="translate(20.019744, 18.217665) rotate(-36.000000) translate(-20.019744, -18.217665) translate(3.019744, 8.217665)">
                        <path d="M24.8086551,9.94242884 C24.8086551,5.6371785 21.1821287,2.1343628 16.6924876,2.1343628 C12.2028465,2.1343628 8.57632013,5.6371785 8.57632013,9.94242884 C8.57632013,14.2476792 12.2028465,17.7504949 16.6924876,17.7504949 C21.1821287,17.7504949 24.8086551,14.2476792 24.8086551,9.94242884 Z M26.6400445,9.94242884 C26.6400445,15.2736239 22.179627,19.5818843 16.6924876,19.5818843 C11.2053482,19.5818843 6.7449307,15.2736239 6.7449307,9.94242884 C6.7449307,4.61123386 11.2053482,0.302973385 16.6924876,0.302973385 C22.179627,0.302973385 26.6400445,4.61123386 26.6400445,9.94242884 Z" id="Stroke-1" fill="#C9C9C9"></path>
                        <path d="M24.8086551,9.94242884 C24.8086551,5.6371785 21.1821287,2.1343628 16.6924876,2.1343628 C12.2028465,2.1343628 8.57632013,5.6371785 8.57632013,9.94242884 C8.57632013,14.2476792 12.2028465,17.7504949 16.6924876,17.7504949 C21.1821287,17.7504949 24.8086551,14.2476792 24.8086551,9.94242884 Z" id="路径" fill="#FFFFFF"></path>
                        <path d="M24.273954,6.03990803 L24.6477558,4.24707242 C29.7738812,5.31585673 33.0814899,7.33308334 33.0814899,9.94221997 C33.0814899,13.7675445 25.7236097,16.4057281 16.6924876,16.4057281 C7.66121351,16.4057281 0.302764532,13.7675103 0.302764532,9.94221997 C0.302764532,7.31679907 3.65396586,5.28966904 8.83453533,4.22698058 L9.20254477,6.02101409 C4.81357033,6.92132292 2.13415395,8.54209258 2.13415395,9.94221997 C2.13415395,12.2447316 8.63183392,14.5743386 16.6924876,14.5743386 C24.7530183,14.5743386 31.2501005,12.244796 31.2501005,9.94221997 C31.2501005,8.55335653 28.611835,6.9443453 24.273954,6.03990803 Z" id="Stroke-3" fill="#C9C9C9"></path>
                    </g>
                </g>
                <path d="M101.619103,49.7248015 L96.7004781,52.3499958 C96.572404,52.4183516 96.4131662,52.3699411 96.3448098,52.2418676 C96.3035265,52.1645177 96.3035265,52.0716772 96.3448098,51.9943277 L98.9700042,47.0757024 L96.3448098,42.157077 C96.276454,42.0290032 96.3248645,41.8697653 96.4529381,41.8014091 C96.5302879,41.7601258 96.6231287,41.7601258 96.7004781,41.8014091 L101.619103,44.4266032 L106.537729,41.8014091 C106.665802,41.7330529 106.825041,41.7814636 106.893396,41.9095374 C106.93468,41.9868868 106.93468,42.0797276 106.893396,42.157077 L104.268203,47.0757024 L106.893396,51.9943277 C106.961753,52.1224015 106.913342,52.2816394 106.785268,52.3499958 C106.707919,52.3912791 106.615078,52.3912791 106.537729,52.3499958 L101.619103,49.7248015 Z" id="星形" fill="#C9C9C9" fill-rule="nonzero" transform="translate(101.619103, 47.075702) rotate(-44.000000) translate(-101.619103, -47.075702) "></path>
                <g id="分组" transform="translate(25.828673, 30.753500)">
                    <g id="Group-29" transform="translate(0.083116, 0.000000)">
                        <g id="Group-4" transform="translate(0.919716, 47.327973)" fill-rule="nonzero">
                            <path d="M16.1407025,0.931224516 C15.7299959,0.583767567 -6.1027316,17.2906558 4.04729718,22.5259495 C8.73506421,24.9443602 10.5880037,19.3574731 11.31422,15.039769 C11.8180836,12.0429528 13.4568301,9.15230407 15.7939138,7.12891885 L19.9900569,3.4964771" id="Fill-1" fill="#FFFFFF"></path>
                            <path d="M16.3252751,1.82816438 C16.3134412,1.83477931 16.3001582,1.84233349 16.2856485,1.85076218 C16.129611,1.94140455 15.8979096,2.09358197 15.6138039,2.29350315 C14.9700034,2.74653644 14.1311071,3.39106708 13.2318788,4.13005525 C10.9632993,5.99437984 8.68020863,8.14117159 6.81918592,10.2422119 C4.53338905,12.8228098 3.01138834,15.1868886 2.48057867,17.135 C1.91247674,19.2199768 2.48645927,20.6905577 4.46712575,21.7121677 C6.19826129,22.6052575 7.39354069,22.2496997 8.41533044,20.7849927 C9.32537447,19.48047 9.98750932,17.4069857 10.4112,14.8879416 C10.9502703,11.681727 12.6960036,8.5998083 15.1945947,6.43659424 L19.3907378,2.80415248 C19.7730981,2.47315766 20.3513867,2.51479763 20.6823815,2.89715796 C21.0133763,3.27951828 20.9717364,3.85780688 20.5893761,4.18880171 L16.3932771,7.82120528 C14.2149939,9.70710517 12.6853241,12.4075853 12.217231,15.1916509 C11.7523165,17.9557901 11.0181483,20.2548481 9.91734984,21.8328119 C8.39006759,24.0221282 6.20824757,24.6711506 3.62753751,23.3397668 C0.848771467,21.9065042 -0.0737080609,19.5430511 0.71360686,16.6535462 C1.33413723,14.376153 2.99222676,11.8006915 5.44826229,9.02789909 C7.37892086,6.84824195 9.73070463,4.63685797 12.0691078,2.71515217 C15.0769364,0.243310821 15.9877382,-0.397607602 16.7321249,0.232142006 C17.1182175,0.558775566 17.1664186,1.13655429 16.839785,1.5226469 C16.7019229,1.68560499 16.5193209,1.78837006 16.3252751,1.82816438 Z" id="Stroke-3" fill="#C9C9C9"></path>
                        </g>
                        <g id="Group-8" transform="translate(34.143501, 47.327973)" fill-rule="nonzero">
                            <path d="M3.45875002,1.06276878 C7.15832206,2.396694 24.8911579,16.6025463 17.2864437,21.0299837 C13.1101974,23.4617411 10.5895492,19.2710911 9.31956746,14.6027 C8.12270794,10.2037327 0.91533737,5.52284256 0.91533737,5.52284256" id="Fill-5" fill="#FFFFFF"></path>
                            <path d="M3.14815784,1.92418 C2.67241356,1.75264467 2.42580347,1.22792087 2.5973388,0.752176592 C2.76887412,0.276432316 3.29359792,0.0298222317 3.7693422,0.201357558 C6.07512183,1.03273416 11.6305311,5.30870734 15.2844012,9.26503992 C20.359842,14.7606187 21.8913552,19.4085996 17.7472155,21.8213029 C13.3515078,24.380849 10.1484319,21.1379439 8.43599275,14.8431007 C8.37957041,14.6357248 8.30562342,14.422206 8.21440586,14.2029869 C7.62159927,12.7783208 6.34061117,11.1920988 4.57995107,9.56620759 C3.66881488,8.7248138 2.68927871,7.92761161 1.70959448,7.20187033 C1.3667848,6.94791999 1.04887554,6.72134963 0.764321256,6.52540521 C0.595538994,6.40918156 0.476818499,6.32990891 0.416586636,6.29079079 C-0.00753946538,6.01533835 -0.128063297,5.44821791 0.147389127,5.0240918 C0.422841546,4.59996571 0.989961995,4.47944188 1.4140881,4.75489428 C1.48778901,4.80275998 1.62019246,4.89116914 1.80298373,5.0170394 C2.10438532,5.22458492 2.43939833,5.46334491 2.7997357,5.73027962 C3.82904305,6.49278127 4.85849846,7.33061056 5.82242108,8.22075021 C7.76000183,10.0100199 9.19024557,11.7810621 9.90525788,13.4994198 C10.0259016,13.7893577 10.1255155,14.0769884 10.2031509,14.3623314 C11.6458901,19.6657704 13.8964408,21.9443061 16.8257231,20.2386346 C19.4496286,18.7110062 18.3038745,15.2337635 13.9390071,10.5075784 C10.4666388,6.74777211 5.12650848,2.63749814 3.14815784,1.92418 Z" id="Stroke-7" fill="#C9C9C9"></path>
                        </g>
                        <g id="分组-7" transform="translate(13.143029, 44.160577)" fill-rule="nonzero">
                            <path d="M26.2108367,10.2051697 C26.2147757,4.38279058 22.0911541,1.93838647 14.0943357,1.93296946 C6.09762244,1.92758868 1.97049925,4.36662098 1.96655009,10.1889602 C1.96442764,13.851375 3.50020476,20.5055686 5.70762445,25.9454319 C8.27048253,32.2612214 11.3235927,36.0863459 14.0718305,36.0882022 C16.8198952,36.0897915 19.8780217,32.2685894 22.4491733,25.9563748 C24.6638615,20.519283 26.2083498,13.8673196 26.2108367,10.2051697 Z M28.0422268,10.2064104 C28.0395617,14.1296187 26.442793,21.0067506 24.1452554,26.6472392 C21.3049738,33.6201722 17.8623721,37.9217846 14.0706824,37.9195916 C10.2787555,37.9170305 6.84175397,33.6109431 4.0106289,26.6340488 C1.72064112,20.9907082 0.132887009,14.1113094 0.13516057,10.1878083 C0.139969104,3.09773094 5.2199092,0.0956060719 14.0955721,0.10158038 C22.9713406,0.107590937 28.0470238,3.11635882 28.0422268,10.2064104 Z" id="Stroke-11" fill="#C9C9C9"></path>
                            <path d="M26.2108367,10.2051697 C26.2147757,4.38279058 22.0911541,1.93838647 14.0943357,1.93296946 C6.09762244,1.92758868 1.97049925,4.36662098 1.96655009,10.1889602 C1.96442764,13.851375 3.50020476,20.5055686 5.70762445,25.9454319 C8.27048253,32.2612214 11.3235927,36.0863459 14.0718305,36.0882022 C16.8198952,36.0897915 19.8780217,32.2685894 22.4491733,25.9563748 C24.6638615,20.519283 26.2083498,13.8673196 26.2108367,10.2051697 Z" id="路径" fill="#FFFFFF"></path>
                            <path d="M24.6431312,13.0128214 C19.0879804,25.0005675 15.1468122,30.9944411 12.8196267,30.9944411 C9.32884848,30.9944411 11.8122457,37.0038965 16.3651406,32.867504 C19.4004039,30.1099094 22.1597339,23.4916815 24.6431312,13.0128214 Z" id="Path-4" fill="#A3A3A3" opacity="0.100000001"></path>
                        </g>
                        <path d="M35.1938349,5.17865608 C50.1900187,7.03287017 53.1052718,13.9343579 53.100449,20.639018 L53.0976746,24.734842 C53.0928396,32.6649805 49.1015467,40.6431086 26.5585801,40.6278515 C5.13930842,40.6132019 0.943581623,32.7366173 0.949095944,24.8092609 L0.951869459,20.5075677 C0.956013404,13.5942564 4.16755735,6.68164055 19.261814,5.05485631" id="Stroke-13-Copy" fill="#F9F9F9" fill-rule="nonzero"></path>
                        <path d="M35.0814688,6.08743033 L35.3062009,4.26988182 C48.7676412,5.93433145 54.0226657,11.5780201 54.0161439,20.6396356 L54.0133689,24.7354003 C54.0067106,35.657021 46.4608067,41.5570113 26.5579557,41.543548 C7.53175752,41.530528 0.0259164757,35.5633853 0.0334011405,24.8086728 L0.0361749252,20.5070189 C0.0416796462,11.3234621 5.53659606,5.6130949 19.1636932,4.14443387 L19.3599348,5.96527881 C6.63684726,7.3365102 1.87249147,12.2876722 1.86756399,20.5081558 L1.86480133,24.8098991 C1.85808351,34.4483165 8.46369074,39.6997741 26.5592016,39.7121133 C45.53519,39.7249929 52.176006,34.5326727 52.1819798,24.7342244 L52.1847425,20.6383577 C52.1905943,12.5229924 47.6446356,7.64081227 35.0814688,6.08743033 Z" id="Stroke-13" fill="#C9C9C9" fill-rule="nonzero"></path>
                        <path d="M19.5745805,5.71739824 L19.5773475,4.76126728 C19.578731,2.41541874 21.4616581,1.61414016 23.933951,1.43886047 C24.8615796,1.37230691 25.9739039,1.33145222 27.305511,1.33209566 C28.7837679,1.33277015 30.0095382,1.38680372 31.0194844,1.46917198 C33.462724,1.66685585 35.0053128,2.42530293 35.3027627,4.79157879 L35.2999958,5.8821348" id="Stroke-15" fill="#FFFFFF" fill-rule="nonzero"></path>
                        <path d="M30.9450501,2.38183641 C29.8833048,2.29524357 28.6728103,2.24841548 27.3050579,2.2478058 C26.0581408,2.24718876 24.9588642,2.28337557 23.998709,2.35226244 C21.5694392,2.5244919 20.4939423,3.2352843 20.493042,4.7618613 L20.4902751,9.02710604 L18.658886,9.02591797 L18.661653,4.76072726 C18.6632582,2.03886781 20.6027881,0.75703883 23.8684221,0.525513494 C24.8734538,0.453406527 26.016511,0.415778508 27.3059192,0.4164008 C28.7217475,0.417047704 29.9814853,0.465780741 31.0933324,0.556459965 C34.1844881,0.806567072 35.8734488,1.98963603 36.2113077,4.67737128 L36.2184575,4.79215472 L36.2156906,9.19182447 L34.3843016,9.19067267 L34.3870306,4.85098265 C34.161389,3.20019178 33.235655,2.56717068 30.9450501,2.38183641 Z" id="Stroke-15-Copy" fill="#C9C9C9" fill-rule="nonzero"></path>
                        <path d="M32.8172704,8.77760935 L32.8193657,6.10516674 C32.6154246,4.53840699 31.5600989,4.0361166 29.8887593,3.90474834 C29.197315,3.85065553 28.3585022,3.81459363 27.3471776,3.81392806 C26.4364267,3.81330572 25.6751395,3.84099608 25.0409664,3.8847855 C23.3486738,4.00069866 22.0607715,4.53196738 22.0600731,6.08455995 L22.0579777,8.77116974 C24.0466368,8.77116974 27.6330677,8.77331626 32.8172704,8.77760935 Z" id="Fill-17" fill="#C9C9C9" fill-rule="nonzero"></path>
                        <path d="M33.2363169,10.8095504 C31.2592626,10.5662192 29.0153198,10.4335556 26.4698276,10.4321516 C9.64129608,10.4211829 6.33603824,16.6151307 6.33187894,22.8090784 L6.32979149,26.1765349 C6.32564,32.3821683 9.6225792,38.5479332 26.4511107,38.5596476 C44.1634936,38.570617 47.2996064,32.3258031 47.3037659,26.1181079 L47.3058533,22.9114975 C47.3093118,17.6633795 45.0189234,12.2606018 33.2363169,10.8095504" id="Fill-19" fill="#C9C9C9" fill-rule="nonzero"></path>
                        <path d="M26.8178224,29.8732097 C23.9601782,29.8732097 21.6440782,27.5585664 21.6440782,24.7027194 C21.6440782,21.8468724 23.9601782,19.5322291 26.8178224,19.5322291 C29.6754667,19.5322291 31.9915666,21.8468724 31.9915666,24.7027194 C31.9915666,27.5585664 29.6754667,29.8732097 26.8178224,29.8732097" id="Fill-21" fill="#FFFFFF" fill-rule="nonzero"></path>
                        <g id="Group-26" transform="translate(6.743695, 63.377987)">
                            <path d="M5.028124,2.88515012 C5.028124,2.88515012 3.78047558,-0.387563406 0.135055419,0.308012311" id="Fill-23"></path>
                            <path d="M4.47089594,2.65910929 C4.17543935,2.06819611 3.78047558,-0.387563406 0.135055419,0.308012311" id="Stroke-25" stroke="#C9C9C9" stroke-width="0.525721154" stroke-linecap="round"></path>
                        </g>
                    </g>
                    <g id="Group-3" transform="translate(19.243797, 51.058433)" fill="#C9C9C9" fill-rule="nonzero">
                        <path d="M9.55299312,1.4885127 L9.55299312,0.791816772 C9.55299312,0.158106271 9.12676159,0 8.91008477,0 C8.76563353,0 8.18424008,0 7.16590438,0 C6.94770166,0 6.50120668,0.232372672 6.50120668,0.791816772 L6.50120668,1.42681269 L0.618888347,0.138825019 C0.245044508,0.0591291746 -0.0174091244,0.302072958 0.000901594193,0.623427166 L0.296924877,5.06454235 C0.325916849,5.57228201 0.774529451,5.90520497 1.34368762,5.71881953 L6.50120668,3.9616547 L6.50120668,4.7199325 C6.50120668,4.90374711 6.94770166,5.14166737 7.16590438,5.14166737 L9.18525285,5.14166737 C9.40192967,5.14166737 9.55299312,4.77660898 9.55299312,4.59279437 L9.55299312,3.87039011 L15.0874078,5.73810077 C15.6550401,5.92577166 16.2821822,5.59156325 16.3111741,5.08382361 L16.555317,0.642708421 C16.5736278,0.322639627 16.2104652,0.0784104274 15.8366214,0.158106271 L9.55299312,1.4885127 Z" id="Fill-1"></path>
                        <path d="M2.50558278,4.83354269 L2.50558278,5.18237877 C2.50558278,10.0502052 5.81055908,18.7449265 8.32065678,18.7449265 C10.8307545,18.7449265 14.1357309,10.0502052 14.1357309,5.18237877 L14.1357309,4.83354269 L15.5694802,4.83354269 L15.5694802,5.18237877 C15.5694802,10.6971287 11.9689367,20.2251922 8.32065678,20.2251922 C4.67237695,20.2251922 1.07183346,10.6971287 1.07183346,5.18237877 L1.07183346,4.83354269 L2.50558278,4.83354269 Z" id="Fill-13"></path>
                    </g>
                </g>
                <path d="M73.1057732,18.3162961 L69.6660549,20.1521602 C69.6148255,20.1795027 69.5511307,20.1601384 69.5237879,20.1089089 C69.5072745,20.0779691 69.5072745,20.0408328 69.5237879,20.009893 L71.3596519,16.5701748 L69.5237879,13.1304565 C69.4964457,13.079227 69.5158096,13.0155318 69.567039,12.9881894 C69.5979792,12.971676 69.6351151,12.971676 69.6660549,12.9881894 L73.1057732,14.8240536 L76.5454915,12.9881894 C76.596721,12.9608469 76.6604163,12.9802112 76.6877585,13.0314407 C76.7042719,13.0623804 76.7042719,13.0995167 76.6877585,13.1304565 L74.8518945,16.5701748 L76.6877585,20.009893 C76.7151013,20.0611226 76.6957369,20.1248177 76.6445074,20.1521602 C76.6135677,20.1686735 76.5764313,20.1686735 76.5454915,20.1521602 L73.1057732,18.3162961 Z" id="星形" fill="#C9C9C9" fill-rule="nonzero" transform="translate(73.105773, 16.570175) rotate(-45.000000) translate(-73.105773, -16.570175) "></path>
            </g>
        </g>
    </g>
</svg>