<?xml version="1.0" encoding="UTF-8"?>
<svg width="14px" height="14px" viewBox="0 0 14 14" version="1.1" xmlns="http://www.w3.org/2000/svg" xmlns:xlink="http://www.w3.org/1999/xlink">
    <title>shuaxin</title>
    <g id="产品" stroke="none" stroke-width="1" fill="none" fill-rule="evenodd">
        <g id="设备管理" transform="translate(-1392.000000, -186.000000)" fill="#505767" fill-rule="nonzero">
            <g id="产品信息" transform="translate(208.000000, 169.000000)">
                <g id="2" transform="translate(0.000000, 10.000000)">
                    <g id="ic/shuxin备份" transform="translate(1178.000000, 1.000000)">
                        <g id="shuaxin" transform="translate(6.000000, 6.000000)">
                            <path d="M13.503861,6.99288298 C13.2335258,6.97282954 12.9979348,7.17530035 12.9771145,7.44557759 C12.8650344,8.94997596 12.1888353,10.35652 11.0839009,11.3836015 C9.97407192,12.4212601 8.51084445,12.9975089 6.99148578,12.9952782 C5.80386103,12.9952782 4.65675524,12.6501684 3.6731225,11.994879 C2.8117894,11.4241731 2.11248579,10.640645 1.64298278,9.72022829 L3.00735404,9.72022829 C3.18283488,9.72026033 3.34499957,9.62666083 3.43274923,9.4746953 C3.5204989,9.32272978 3.5204989,9.13549128 3.43274923,8.98352576 C3.34499957,8.83156024 3.18283488,8.73796073 3.00735404,8.73799277 L0.496575599,8.73799277 C0.22533875,8.73799277 0.00545782887,8.95787368 0.00545782887,9.22911052 L0.00545782887,11.739889 C0.00545782887,12.0111258 0.225338744,12.2310067 0.496575599,12.2310067 C0.767812454,12.2310067 0.987693369,12.0111258 0.987693369,11.739889 L0.987693369,10.5662363 C1.52424367,11.466178 2.25597205,12.2341943 3.12891093,12.8136415 C4.27320153,13.5746273 5.61726021,13.9796194 6.99148578,13.9775219 C8.76593687,13.9775219 10.4565556,13.3117453 11.7531624,12.1024638 C13.0401062,10.9079124 13.8275026,9.27072681 13.9572542,7.51962949 C13.9672588,7.38959225 13.9250543,7.26092587 13.8399721,7.1620785 C13.75489,7.06323112 13.6339389,7.00234533 13.503861,6.99288298 L13.503861,6.99288298 Z M13.486396,1.75196482 C13.2151591,1.75196482 12.9952782,1.97184574 12.9952782,2.24308259 L12.9952782,3.41673528 C11.7345415,1.30154955 9.45389671,0.00571656247 6.99148578,0.00545782887 C5.21703469,0.00545782887 3.52641591,0.671226286 2.22980913,1.88050774 C0.942972765,3.07529325 0.155188733,4.71224708 0.0243201043,6.46334207 C0.0042773305,6.73392996 0.207156376,6.96963227 0.477713323,6.99008858 C0.748048537,7.01014202 0.983639579,6.80767121 1.00445984,6.53739397 C1.11653999,5.0329956 1.79273907,3.62645159 2.8976734,2.59937002 C4.00815987,1.56186427 5.47175084,0.985668983 6.99148578,0.987693369 C8.17911052,0.987693369 9.32621632,1.33280314 10.3098491,1.98809256 C11.1711822,2.5587985 11.8704858,3.34232656 12.3399888,4.26274326 L10.9756175,4.26274326 C10.8001367,4.26271122 10.637972,4.35631073 10.5502223,4.50827625 C10.4624727,4.66024178 10.4624727,4.84748027 10.5502223,4.9994458 C10.637972,5.15141132 10.8001367,5.24501083 10.9756175,5.24497879 L13.486396,5.24497879 C13.7576328,5.24497879 13.9775137,5.02509788 13.9775137,4.75386103 L13.9775137,2.24308259 C13.9775137,2.11283006 13.9257711,1.98791233 13.8336687,1.89580988 C13.7415662,1.80370744 13.6166485,1.75196482 13.486396,1.75196482 L13.486396,1.75196482 Z" id="形状"></path>
                        </g>
                    </g>
                </g>
            </g>
        </g>
    </g>
</svg>