<?xml version="1.0" encoding="UTF-8"?>
<svg width="16px" height="16px" viewBox="0 0 16 16" version="1.1" xmlns="http://www.w3.org/2000/svg" xmlns:xlink="http://www.w3.org/1999/xlink">
    <title>Icon/查看备份</title>
    <g id="Icon/查看备份" stroke="none" stroke-width="1" fill="none" fill-rule="evenodd">
        <rect id="box" x="0" y="0" width="16" height="16"></rect>
        <g id="搜索" transform="translate(1.000000, 1.000000)" fill-rule="nonzero">
            <path d="M10.9341367,10.9582015 C11.2035663,10.6893112 11.6398193,10.6893112 11.9092489,10.9582015 L13.6977712,12.4016544 L13.7285716,12.4016544 C14.0904761,12.7677678 14.0904761,13.3606895 13.7285716,13.7261029 C13.5557244,13.9013459 13.3198532,14 13.0737134,14 C12.8275736,14 12.5917025,13.9013459 12.4188552,13.7261029 L10.9348367,12.0250406 L10.878836,11.9620383 C10.6410434,11.6613871 10.6650791,11.2305367 10.9348367,10.9582015 L10.9341367,10.9582015 Z M6.00537507,0 C7.59789498,0 9.12461407,0.639123422 10.2509281,1.77806516 C11.3789258,2.9213032 12.0107455,4.46316151 12.0093524,6.06922237 C12.0093524,9.42094517 9.32131652,12.1384447 6.00537507,12.1384447 C2.6880336,12.1384447 0,9.42094517 0,6.06922237 C0,2.71749956 2.6880336,0 6.00467506,0 L6.00537507,0 Z" id="形状" fill="#666666"></path>
            <path d="M3.73320735,2.25273873 C3.97831204,2.2395383 4.19167715,2.40517873 4.24649561,2.63581365 L4.25937298,2.725126 L4.411,5.55863834 L7.68660997,5.67975303 C7.92114271,5.68837279 8.11378807,5.85776475 8.15846859,6.08067466 L8.16808075,6.16656505 L8.25993137,9.73916455 C8.26702857,10.0152157 8.04899832,10.2447528 7.77294716,10.25185 C7.52756835,10.2581586 7.3189414,10.0865888 7.27062462,9.85450471 L7.2602617,9.7648658 L7.18,6.66163834 L3.91893463,6.54195515 C3.68920133,6.53351179 3.49889198,6.37057898 3.44966891,6.15309856 L3.43802224,6.06918169 L3.26082009,2.77890436 C3.2459696,2.50316159 3.45746458,2.26758922 3.73320735,2.25273873 Z" id="路径-2" fill="#FFFFFF" transform="translate(5.760092, 6.252010) rotate(-225.000000) translate(-5.760092, -6.252010) "></path>
        </g>
    </g>
</svg>